<?xml version="1.0" encoding="UTF-8" standalone="no"?>
<svg
   width="1e3px"
   height="500px"
   version="1.1"
   id="svg6"
   sodipodi:docname="sFlag_of_the_Taliban.svg"
   inkscape:version="1.1.2 (b8e25be833, 2022-02-05)"
   xmlns:inkscape="http://www.inkscape.org/namespaces/inkscape"
   xmlns:sodipodi="http://sodipodi.sourceforge.net/DTD/sodipodi-0.dtd"
   xmlns="http://www.w3.org/2000/svg"
   xmlns:svg="http://www.w3.org/2000/svg">
  <defs
     id="defs10" />
  <sodipodi:namedview
     id="namedview8"
     pagecolor="#ffffff"
     bordercolor="#666666"
     borderopacity="1.0"
     inkscape:pageshadow="2"
     inkscape:pageopacity="0.0"
     inkscape:pagecheckerboard="0"
     showgrid="false"
     inkscape:zoom="1.058"
     inkscape:cx="602.55199"
     inkscape:cy="301.51229"
     inkscape:window-width="1920"
     inkscape:window-height="1009"
     inkscape:window-x="-8"
     inkscape:window-y="-8"
     inkscape:window-maximized="1"
     inkscape:current-layer="svg6" />
  <path
     d="M0,0h1000v500H0V0z"
     fill="#fff"
     id="path2" />
  <path
     id="path857"
     style="fill:#000000;stroke-width:0.424784"
     d="m 441.84998,376.83473 c -0.38066,-4.97614 -1.34866,-11.20854 -2.61865,-16.86007 -2.04156,-9.08502 -1.14836,-14.72525 2.78291,-17.57304 1.53664,-1.11313 2.89516,-1.64447 6.41555,-2.50919 l 1.48675,-0.36519 -1.97718,-0.95767 c -2.50518,-1.21341 -3.7708,-0.92562 -5.4932,1.24908 -1.67226,2.1114 -2.26925,2.13032 -1.89006,0.0599 0.48296,-2.63707 2.4008,-6.4552 3.71106,-7.38819 3.0592,-2.17834 7.44967,-0.23083 11.57972,5.13647 1.41394,1.83752 1.82329,2.69804 1.64755,3.46342 -0.12862,0.56013 -0.40952,1.72532 -0.62423,2.5893 l -0.39039,1.57089 -4.3436,-0.0507 c -5.4118,-0.0631 -7.65251,0.54265 -9.74418,2.63432 -1.94091,1.94091 -1.96794,2.36531 -0.58525,9.18978 1.52913,7.54725 2.08455,12.87649 1.84535,17.70591 -0.21304,4.30123 -0.52036,5.8218 -1.17662,5.8218 -0.18766,0 -0.46915,-1.67258 -0.62553,-3.71685 z m 248.61761,-5.73458 c -0.16457,-5.54814 -0.34722,-6.91549 -1.27253,-9.52626 -1.40985,-3.97803 -4.20319,-8.10048 -8.09489,-11.94661 l -3.1377,-3.10097 0.64953,-3.80176 c 0.35725,-2.09097 0.77719,-3.80176 0.93321,-3.80176 0.15598,0 1.63474,1.42233 3.28604,3.16074 3.7141,3.90996 6.48258,8.55604 8.2414,13.8306 1.26449,3.79221 1.34711,4.41951 1.37048,10.4072 0.0238,6.08758 -0.63769,11.25677 -1.44036,11.25677 -0.18865,0 -0.4295,-2.91508 -0.53518,-6.47795 z m -44.36033,5.02833 c -5.36348,-2.49733 -10.30011,-9.26594 -12.63412,-17.32264 -1.34797,-4.65306 -1.90919,-8.54194 -2.48057,-17.18879 -0.78041,-11.81019 -0.64839,-18.00387 0.47708,-22.37962 1.91382,-7.44088 5.92122,-15.73658 10.82013,-22.3985 l 2.32046,-3.1556 -13.45209,-13.14802 c -7.39867,-7.23142 -16.36716,-16.01642 -19.93004,-19.52224 -5.71899,-5.62742 -6.47795,-6.24102 -6.47795,-5.23735 0,1.47439 1.81689,26.36754 3.23184,44.27937 1.37103,17.35575 1.26199,25.42321 -0.44216,32.70834 -1.46465,6.26134 -2.76045,10.0626 -3.36246,9.86382 -0.31383,-0.10364 -0.60769,-2.20494 -0.81979,-5.86225 -0.18185,-3.13539 -0.79328,-11.91317 -1.35871,-19.50617 -0.56547,-7.59301 -1.93068,-26.6127 -3.0338,-42.26597 l -2.0057,-28.46051 -5.13126,-5.32444 c -16.31628,-16.93058 -25.87565,-28.23657 -38.66852,-45.73372 -4.21866,-5.77 -5.49764,-7.20994 -7.92327,-8.92046 l -2.89255,-2.03978 -0.0184,-7.30245 c -0.0101,-4.01635 0.14736,-7.4049 0.34996,-7.5301 0.48521,-0.29989 4.01134,2.1959 10.53745,7.45837 9.66879,7.79665 16.28033,13.55822 16.28033,14.18737 0,0.80802 -2.41561,0.81549 -5.41599,0.0167 -1.22656,-0.32652 -2.23011,-0.43083 -2.23011,-0.23178 0,1.47233 24.52029,29.37358 32.44765,36.92166 l 1.53992,1.46625 -0.23057,-2.52821 c -0.12684,-1.39051 -1.27252,-17.43811 -2.54598,-35.66132 -1.27346,-18.22322 -2.42497,-33.80216 -2.55886,-34.61987 -0.13389,-0.81771 -0.81159,-3.04698 -1.50594,-4.95394 l -1.2625,-3.46721 2.83772,-6.86222 c 2.29787,-5.5567 2.93878,-6.75579 3.36871,-6.30281 1.09772,1.15647 9.05035,23.98567 10.58998,30.39995 1.28535,5.35503 0.4004,5.52883 -3.40086,0.66793 -1.8713,-2.39291 -2.56493,-3.0302 -2.64784,-2.43273 -0.0618,0.44524 1.02368,17.23304 2.41226,37.30622 l 2.52461,36.49669 7.35776,7.39104 c 4.04679,4.06508 14.97371,14.87353 24.28208,24.0188 l 16.92436,16.62776 2.40329,-2.53414 c 2.47675,-2.61153 20.54539,-22.18162 23.73899,-25.71159 l 1.79556,-1.98471 -2.1189,-28.83371 c -5.18092,-70.50126 -5.44683,-73.38078 -7.20701,-78.04452 l -1.3466,-3.5678 2.86159,-6.87673 c 2.28389,-5.48841 2.96537,-6.76414 3.37546,-6.31903 1.05933,1.14975 9.43483,25.35191 10.81563,31.25325 0.56866,2.43036 0.37411,3.61216 -0.53718,3.26248 -0.31919,-0.1225 -1.6968,-1.64806 -3.06129,-3.39014 -1.36453,-1.74208 -2.52139,-3.12006 -2.57079,-3.06219 -0.20088,0.23527 6.32154,87.63239 6.55976,87.89763 0.14175,0.15784 5.61003,-5.46207 12.15171,-12.48869 C 721.25,211.10858 738.557,192.29348 738.557,192.002 c 0,-0.16035 -2.30543,-3.24884 -5.12323,-6.86331 -6.44052,-8.26157 -12.42292,-17.21348 -15.179,-22.71354 -1.17075,-2.33631 -2.72066,-4.80927 -3.44428,-5.49546 l -1.31572,-1.24763 v -7.56663 c 0,-4.16165 0.15411,-7.56663 0.3425,-7.56663 0.72647,0 23.0528,22.33354 23.03704,23.04451 -0.0221,0.9935 -1.37447,0.96111 -4.47986,-0.1073 -1.3599,-0.46786 -2.55188,-0.77129 -2.6489,-0.67428 -0.27641,0.27639 11.46002,15.15728 12.18041,15.44386 0.15687,0.0624 0.22909,-0.51106 0.16053,-1.27435 -0.0686,-0.76329 -0.52325,-6.69709 -1.01039,-13.18622 -0.84842,-11.30082 -0.94451,-11.94806 -2.27875,-15.34669 l -1.393,-3.54828 2.78956,-6.85388 c 1.53423,-3.76963 2.98656,-6.7882 3.22733,-6.70794 0.63561,0.21187 2.74338,5.76822 7.08879,18.68688 5.41425,16.09624 5.54173,19.22801 0.52248,12.83542 -1.46584,-1.86698 -2.54895,-2.92081 -2.62873,-2.55765 -0.15406,0.70178 1.16268,19.00792 1.38314,19.22835 0.21847,0.2185 13.18771,-14.23625 21.38493,-23.83441 l 4.29515,-5.02919 -1.07147,-2.89069 -1.07148,-2.89068 2.86819,-6.89252 c 3.27979,-7.8817 3.04786,-7.80937 5.32627,-1.66098 0.77273,2.08519 1.53908,3.79125 1.70309,3.79125 0.30452,0 4.73391,-7.13287 6.84029,-11.01538 0.6424,-1.1841 1.38093,-2.15291 1.64119,-2.15291 1.2086,0 -1.51393,10.59026 -4.17923,16.25661 l -1.95791,4.16253 2.18971,6.88797 c 4.17006,13.11729 3.93779,15.0333 -1.03532,8.54045 -1.32813,-1.73399 -2.50002,-3.06751 -2.60414,-2.96337 -0.10416,0.10414 0.92573,16.49566 2.28861,36.42561 l 2.47797,36.23625 2.55427,3.02913 c 16.2876,19.31585 19.97753,23.82184 25.39263,31.00863 10.54903,14.00044 16.83668,26.72746 18.746,37.9444 0.72591,4.26453 0.9476,15.32355 0.3072,15.32355 -0.20589,0 -0.60298,-0.90797 -0.8824,-2.01772 -1.51334,-6.01011 -6.59158,-17.15557 -11.22075,-24.62651 -4.94155,-7.97522 -13.58916,-19.12378 -26.49443,-34.15689 -5.36723,-6.25222 -6.71872,-7.61068 -6.82564,-6.86106 -0.13525,0.94803 1.20809,20.00322 3.11872,44.23806 1.53284,19.44338 1.36029,24.02793 -1.29915,34.51942 -1.35778,5.35638 -2.19745,7.46626 -2.75103,6.91266 -0.2245,-0.22448 -0.6026,-3.93801 -0.84026,-8.25229 -0.23767,-4.31428 -1.08826,-16.63716 -1.89025,-27.38419 -0.80195,-10.74703 -2.05684,-28.33307 -2.78866,-39.08009 -0.73178,-10.74703 -1.41105,-19.92235 -1.50943,-20.38962 -0.0984,-0.46726 -1.47166,-2.2981 -3.05169,-4.06853 -1.58002,-1.77043 -8.41619,-9.49571 -15.19149,-17.16729 -11.51652,-13.04 -12.32718,-13.86361 -12.44862,-12.64749 -0.0714,0.71546 0.36408,8.53632 0.96778,17.37968 1.75899,25.76686 4.00771,57.0801 4.69327,65.35375 0.97632,11.78188 1.39894,24.89525 1.01344,31.44502 -0.47015,7.98793 -2.20662,14.5399 -5.03597,19.00131 -3.50766,5.531 -14.31615,9.7114 -25.05221,9.68945 -11.13553,-0.0228 -15.91618,-3.49217 -24.26848,-17.61217 -4.53325,-7.66368 -8.41939,-10.8948 -12.31245,-10.23708 -3.9535,0.66794 -10.35066,6.51064 -14.15196,12.92539 -2.21648,3.74028 -3.86978,7.32333 -8.97292,19.44585 -3.92321,9.31963 -6.6341,14.01521 -9.84372,17.0506 -4.19236,3.96475 -8.35719,4.90014 -12.73731,2.86069 z m 6.30439,-11.81383 c 2.26596,-0.95462 5.46386,-4.1253 7.72363,-7.65784 1.74569,-2.72899 5.16146,-9.47812 8.33026,-16.45967 5.86944,-12.93169 10.20848,-20.02104 15.48408,-25.29859 6.05818,-6.06045 11.04612,-7.60125 15.79312,-4.87859 2.68829,1.54186 3.88847,3.03877 7.98479,9.95874 8.17241,13.80578 12.26579,16.67509 23.60815,16.54854 4.22596,-0.0471 6.14258,-0.28204 9.38963,-1.15072 3.96408,-1.0605 9.63469,-3.40731 11.0719,-4.58216 0.80896,-0.66128 0.83593,-0.0659 -1.35391,-29.8897 -0.6862,-9.34524 -2.49459,-35.91546 -4.01871,-59.04493 -1.52408,-23.12946 -2.81865,-42.40346 -2.8768,-42.83108 -0.0727,-0.53448 -4.43683,3.91366 -13.96149,14.23025 -7.62062,8.25426 -20.19936,21.79368 -27.95268,30.08758 l -14.097,15.07981 0.34178,5.52219 c 0.57682,9.32079 0.34353,16.85648 -0.68866,22.24232 -0.805,4.20063 -2.67728,11.03768 -3.31233,12.09597 -0.64576,1.07613 -1.09841,-1.21926 -1.42366,-7.21929 -0.45575,-8.40824 -1.69502,-24.51618 -1.90257,-24.73006 -0.17909,-0.18449 -3.21416,3.02481 -14.61323,15.45197 -4.50033,4.90625 -8.26752,9.13305 -8.37151,9.39288 -0.10399,0.25984 0.86694,1.87613 2.15756,3.59178 2.87192,3.8176 4.53826,6.8999 5.84031,10.80323 1.40476,4.21124 1.41771,12.49459 0.0272,17.32427 -1.37307,4.76868 -3.38518,8.62532 -5.94412,11.39306 -5.48001,5.92715 -18.95359,9.9109 -24.29818,7.1843 l -1.65075,-0.84216 0.22306,2.4351 c 0.73356,8.00828 3.04005,14.53331 6.54472,18.51484 3.52762,4.00761 7.01666,4.80439 11.94551,2.72796 z m 29.45152,-56.80191 c -0.24841,-0.40195 0.30058,-0.75544 6.99415,-4.50362 4.74704,-2.6582 10.82582,-6.61083 17.62852,-11.46266 6.00878,-4.28561 9.61557,-7.36098 11.65929,-9.94136 l 1.31182,-1.65632 -1.60054,-0.5104 c -4.06123,-1.29509 -5.22493,-2.41319 -5.20025,-4.99649 0.009,-0.98715 1.29763,-5.14162 2.28695,-7.37535 0.22238,-0.50213 0.0589,-0.7854 -0.56806,-0.98439 -0.48417,-0.15367 -0.88028,-0.56086 -0.88028,-0.90487 0,-1.1659 1.6801,-3.9266 2.55949,-4.20571 1.4384,-0.45653 4.25875,0.20499 7.55987,1.77319 3.42903,1.62896 5.7616,3.70557 7.50619,6.68249 1.98973,3.39525 1.87282,9.2034 -0.22348,11.10052 -0.96469,0.87301 -4.40208,1.09779 -7.47794,0.48901 l -1.75741,-0.34783 -1.40421,2.47175 c -4.25412,7.4884 -21.52366,19.57704 -33.60922,23.52643 -4.23055,1.38246 -4.43117,1.41792 -4.78489,0.84561 z m 49.04773,-31.35932 c 0,-1.15805 -4.22388,-6.19827 -5.94697,-7.09633 l -1.06196,-0.55348 -0.0263,3.57514 c -0.0259,3.50054 -0.004,3.58008 1.06196,3.81275 0.59865,0.13069 1.27957,0.30139 1.5132,0.37933 0.872,0.29088 4.46023,0.19643 4.46023,-0.11741 z m -9.16917,-3.70927 c -0.58527,-3.85868 -2.33325,-4.58016 -4.93696,-2.0377 -2.24621,2.19335 -2.12231,2.93321 0.61925,3.69824 4.42068,1.23358 4.73816,1.11148 4.31771,-1.66054 z m -72.38313,53.33479 c 2.59649,-0.786 8.24756,-3.89342 11.3568,-6.24491 0.83377,-0.63058 1.37656,-1.41406 1.37048,-1.97823 -0.0297,-2.75507 -4.64535,-10.54395 -9.21398,-15.54871 l -2.48354,-2.72063 -3.43514,3.99498 c -8.55845,9.95324 -12.45992,17.38421 -11.13009,21.19896 1.01421,2.9094 6.48151,3.43391 13.53547,1.29854 z M 778.92321,191.30109 c -1.18247,-16.58263 -2.19923,-30.30779 -2.25951,-30.50035 -0.0603,-0.19256 -1.79879,1.69699 -3.86336,4.199 -2.06458,2.50201 -7.12541,8.36695 -11.24627,13.03321 -4.12083,4.66626 -8.10836,9.2026 -8.86116,10.08077 l -1.3687,1.59666 14.74938,16.87164 c 12.05672,13.79151 14.77223,16.68886 14.87444,15.87047 0.0688,-0.55064 -0.84239,-14.56877 -2.02482,-31.1514 z M 512.00428,373.331 c -22.74089,-6.73538 -35.18551,-13.24104 -43.87992,-22.93905 -7.04603,-7.85936 -12.27941,-19.33289 -15.2866,-33.51396 l -0.75635,-3.5667 -0.90331,2.92953 c -1.19374,3.87138 -2.15841,5.67103 -5.33995,9.96198 -6.95595,9.38148 -23.93992,24.401 -36.70084,32.45583 -5.41994,3.42112 -11.75556,6.43723 -15.71699,7.48215 -4.94626,1.3047 -11.48908,1.32348 -14.71752,0.0422 -6.64781,-2.63824 -9.96636,-8.84404 -10.43188,-19.50794 -0.13514,-3.09561 -0.29568,-5.62838 -0.35676,-5.62838 -0.0611,0 -3.23577,1.98326 -7.05488,4.40725 -18.05331,11.45843 -34.71153,19.72531 -42.83805,21.259 -10.32706,1.94898 -27.94801,3.39234 -39.61107,3.2446 -3.22236,-0.0408 -2.60106,-1.03779 1.48674,-2.38574 9.73489,-3.21006 26.04138,-9.5372 36.69319,-14.23745 14.09118,-6.21792 31.63173,-15.80401 49.50847,-27.0569 l 5.81137,-3.65808 1.57533,-4.48561 c 2.06679,-5.88495 3.42935,-8.94582 3.9823,-8.94582 0.65421,0 0.58188,0.49386 -0.85623,5.84635 -0.71741,2.67012 -1.24308,4.91399 -1.16815,4.98636 0.23045,0.22262 12.10643,-8.4062 17.94177,-13.0361 5.38922,-4.27593 16.46818,-14.62182 17.27775,-16.13452 0.31041,-0.58 -0.50415,-2.88494 -3.46137,-9.79458 -4.4971,-10.50765 -7.22067,-18.37851 -8.39514,-24.26114 -0.68515,-3.43173 -1.06341,-4.421 -2.1115,-5.52218 l -1.27682,-1.34151 1.52256,-7.11512 c 0.8374,-3.91332 1.72602,-7.10414 1.9747,-7.09072 0.24869,0.0134 2.36368,2.53309 4.69999,5.59927 2.33631,3.06617 5.53812,7.26982 7.11513,9.34144 2.75715,3.6219 3.51705,5.42449 2.28676,5.42449 -0.31929,0 -1.56629,-0.40966 -2.7711,-0.91035 -1.20481,-0.5007 -2.32614,-0.7748 -2.49183,-0.6091 -0.37308,0.37307 2.28944,8.27614 4.6412,13.77633 2.58716,6.05074 3.35445,9.30472 3.62177,15.35947 0.20232,4.5825 0.10449,5.84147 -0.70973,9.13285 -1.29208,5.22314 -2.75765,8.82361 -4.94355,12.1449 -4.06565,6.17741 -20.90414,20.93116 -35.31534,30.94302 -2.61487,1.81662 -2.6549,1.87437 -2.6549,3.82971 0,5.0274 2.44983,8.76547 7.22132,11.01864 2.07755,0.98105 2.85382,1.10257 7.00893,1.09719 3.6872,-0.005 5.34449,-0.21488 7.8585,-0.99627 6.90387,-2.14582 18.61245,-9.29267 29.73485,-18.15 7.41669,-5.90629 19.70864,-18.22814 23.48133,-23.53843 3.34704,-4.71119 3.32127,-3.2974 0.26853,-14.72893 -4.19761,-15.71871 -9.00999,-29.02388 -16.95061,-46.8647 l -3.87581,-8.70806 2.0167,-7.11513 c 1.10918,-3.91332 2.1579,-7.11512 2.3305,-7.11512 0.62749,0 2.10149,2.30914 4.56795,7.15609 8.30552,16.32156 14.85179,36.81844 20.45933,64.05978 5.11037,24.8261 11.4917,38.84679 21.20066,46.58085 4.12956,3.28958 9.5756,6.60027 10.06018,6.11568 0.10103,-0.10102 0.37604,-1.87651 0.61113,-3.94551 0.5512,-4.85089 1.36447,-7.64228 3.48406,-11.95837 3.81474,-7.76787 9.32701,-11.15785 29.91271,-18.39591 2.76022,-0.97051 5.15257,-1.88944 5.31632,-2.04207 0.16376,-0.15263 -8.0558,-0.22403 -18.26569,-0.15867 -19.49365,0.12479 -45.73368,-0.38612 -46.24804,-0.90048 -0.45014,-0.45013 1.48616,-9.97261 2.57014,-12.6397 0.51771,-1.27378 1.69667,-3.45832 2.61992,-4.85451 6.20126,-9.37795 26.40312,-25.06481 44.68351,-34.69699 l 5.19763,-2.73871 -1.3354,-2.09147 c -0.73448,-1.15031 -1.92074,-3.33396 -2.63614,-4.85256 -1.19022,-2.52651 -1.30152,-3.14004 -1.31005,-7.22132 -0.009,-4.16041 0.0817,-4.64666 1.34463,-7.2336 2.55276,-5.22896 5.9112,-7.60821 10.76239,-7.6245 6.59973,-0.0222 15.51964,3.92549 22.71783,10.05415 3.14027,2.67369 7.00808,7.25299 6.99027,8.27614 -0.005,0.30979 -0.8329,3.61112 -1.8389,7.33631 l -1.82909,6.77305 -5.48862,1.15014 c -3.01874,0.63257 -7.78245,1.86069 -10.58602,2.72915 -2.80358,0.86846 -5.43192,1.67404 -5.84078,1.79018 -0.62901,0.17867 -0.74437,0.74269 -0.74987,3.66608 -0.007,3.9034 -0.48656,5.2162 -1.44629,3.96218 -0.3229,-0.4219 -1.03609,-1.80449 -1.58487,-3.07243 -0.54878,-1.26794 -1.23553,-2.3086 -1.5261,-2.31259 -0.86384,-0.0118 -8.46624,3.52632 -13.70572,6.37868 -9.64913,5.25296 -20.37574,12.48411 -28.83828,19.44081 l -4.4957,3.69572 2.12004,0.28138 c 3.25421,0.4319 51.53504,0.38767 65.4128,-0.0599 6.7753,-0.21852 18.00793,-0.62614 24.96139,-0.90581 6.95346,-0.27967 12.75188,-0.39929 12.88535,-0.26582 0.13346,0.13346 -0.88589,3.33746 -2.26516,7.11999 l -2.50784,6.87732 -8.04119,2.29717 c -12.01542,3.43253 -23.25851,7.23214 -40.93997,13.83571 -21.42825,8.0029 -27.11752,10.6362 -31.92482,14.77655 -1.71373,1.47598 -1.80965,1.66765 -1.34491,2.68765 1.664,3.65207 8.20107,8.33106 15.85361,11.3474 1.1794,0.46488 3.62749,1.52319 5.44018,2.35179 l 3.29581,1.50655 -0.14381,6.24359 c -0.17438,7.57052 -0.43196,9.86773 -1.10027,9.81256 -0.27772,-0.0229 -2.95873,-0.76844 -5.9578,-1.65671 z m 18.9225,-122.21944 c 4.13747,-1.35041 7.53043,-2.56062 7.53991,-2.68936 0.0281,-0.38161 -6.34261,-4.09666 -9.34962,-5.45219 -5.76393,-2.59833 -11.37411,-2.833 -11.12364,-0.46531 0.11137,1.05278 4.79618,11.00421 5.19828,11.04212 0.11682,0.011 3.5976,-1.08486 7.73507,-2.43526 z M 232.42733,369.96767 c -6.0017,-0.78579 -12.33635,-3.11832 -17.34062,-6.38515 -3.42154,-2.23359 -8.26251,-6.85985 -9.91127,-9.47166 l -1.07579,-1.70416 -2.61511,0.26659 c -15.25146,1.5548 -28.46705,2.24154 -30.18902,1.56878 -0.74073,-0.2894 -1.0817,-0.63719 -0.84957,-0.86654 0.21326,-0.21071 3.73293,-1.54324 7.82147,-2.96116 4.08854,-1.41793 10.55352,-3.7712 14.36661,-5.22949 6.64042,-2.53958 6.92465,-2.69623 6.73728,-3.71339 -1.43623,-7.79708 -1.63363,-10.28465 -1.41572,-17.84091 0.24014,-8.32748 0.99622,-13.57268 3.03544,-21.05797 1.9118,-7.01758 4.86847,-13.77429 6.0275,-13.77429 0.83806,0 0.71231,0.91516 -1.1356,8.26508 -2.47345,9.83794 -3.13055,14.94423 -2.84485,22.10695 0.15908,3.98803 0.52968,7.06637 1.12508,9.34524 1.15169,4.40803 3.75055,9.9844 4.64947,9.97638 1.042,-0.009 17.75091,-8.3265 24.90061,-12.39478 18.83091,-10.71506 36.07128,-22.25677 47.62741,-31.88456 4.90134,-4.08347 11.17847,-10.29001 12.63872,-12.4966 1.06445,-1.60849 1.08955,-1.771 0.5221,-3.37934 -0.32787,-0.92928 -1.1947,-2.87537 -1.92629,-4.32464 l -1.33017,-2.63505 -1.58529,0.66238 c -3.52607,1.47328 -9.15812,2.45226 -14.32925,2.49075 -4.64878,0.0346 -5.30301,-0.0592 -7.43371,-1.0653 -2.91379,-1.37594 -5.45912,-3.82732 -6.81631,-6.56471 -0.93285,-1.88154 -1.04168,-2.63685 -1.03738,-7.19947 0.005,-5.67865 0.47884,-7.6155 3.1153,-12.74351 1.75812,-3.41961 5.39186,-7.30572 8.15586,-8.72231 4.38441,-2.24708 9.30733,-0.74488 14.66342,4.47447 2.99703,2.92052 8.02305,9.96954 8.51992,11.94924 0.32725,1.30386 0.94037,1.26889 3.88953,-0.22186 3.57207,-1.80563 6.93616,-4.43091 12.35032,-9.638 5.21398,-5.01456 6.44571,-5.88847 7.72649,-5.48197 1.00769,0.31983 1.03016,0.87992 0.15593,3.88716 -1.26001,4.33428 0.39266,9.63183 3.82048,12.24636 2.86303,2.18374 8.7492,3.67629 8.7492,2.21852 0,-0.94264 -4.59508,-65.01066 -6.16079,-85.89831 -1.42378,-18.99415 -1.56004,-20.16462 -2.80267,-24.07406 -0.71837,-2.26007 -1.24151,-4.3675 -1.16254,-4.68317 0.48599,-1.9426 5.31873,-13.07075 5.67896,-13.07671 1.16611,-0.0193 11.24358,29.89179 11.24358,33.37224 0,2.22785 -0.8892,1.81347 -3.65889,-1.70507 -1.36716,-1.73682 -2.53891,-3.10468 -2.60388,-3.03971 -0.29835,0.29835 6.96217,97.51746 7.30868,97.86397 0.35496,0.35496 3.69964,-2.05253 6.32637,-4.5537 1.368,-1.30262 4.06504,-4.47895 5.99342,-7.05851 4.79434,-6.41333 8.37059,-9.44226 9.32505,-7.89791 0.12504,0.20233 -0.33779,1.97049 -1.02851,3.92925 -0.69073,1.95876 -1.25964,4.0637 -1.26425,4.67766 -0.0211,2.80702 2.51843,6.42589 5.7262,8.15998 1.43422,0.77533 2.39453,0.91854 6.15936,0.91854 3.91451,0 4.71712,-0.12993 6.55979,-1.06196 3.16052,-1.5986 3.23313,-1.95811 1.11544,-5.52272 l -1.82078,-3.06483 1.88142,-7.04373 c 1.03478,-3.87405 2.08943,-7.11306 2.34366,-7.19781 0.63531,-0.21177 2.16562,3.99504 3.12799,8.59884 1.09472,5.23687 1.02841,9.00835 -0.24737,14.06959 -1.92043,7.6187 -5.36994,13.12179 -9.54482,15.2271 -3.12397,1.57535 -5.16212,1.72792 -8.54633,0.63975 -4.46923,-1.43704 -8.46337,-5.31482 -10.41155,-10.10821 -0.53919,-1.32666 -1.22881,-2.4121 -1.53249,-2.4121 -0.30368,0 -2.20681,2.19826 -4.22917,4.88501 -2.02237,2.68676 -4.83184,5.93635 -6.24327,7.22132 l -2.56624,2.33631 -0.18972,13.38069 c -0.19041,13.42886 -0.56588,17.56428 -2.14441,23.61839 -0.37165,1.42538 -0.95463,3.25912 -1.29552,4.07498 -2.05579,4.9202 -14.30966,17.94653 -24.45198,25.99341 -20.27152,16.08331 -42.25594,27.19901 -60.99136,30.83827 -5.08698,0.98811 -14.48848,1.43771 -18.65557,0.89213 z m 18.90287,-15.58806 c 8.59532,-1.31311 18.0923,-4.43492 28.36708,-9.3247 7.7909,-3.70769 12.20195,-6.25676 21.3326,-12.32773 12.05233,-8.01361 21.52557,-15.91046 29.00253,-24.17642 l 4.22662,-4.67262 -0.28982,-6.37175 c -0.15941,-3.50447 -0.56061,-10.09923 -0.89157,-14.65504 -0.33096,-4.5558 -0.60445,-8.4006 -0.60775,-8.54399 -0.003,-0.14339 -1.77418,-0.35794 -3.93527,-0.47679 -4.74403,-0.26088 -7.85342,-1.48754 -10.51343,-4.14755 -2.1712,-2.17119 -4.11701,-6.19065 -4.75656,-9.82561 -0.80758,-4.58998 -1.59255,-4.7175 -4.58864,-0.74547 -1.91366,2.537 -7.5159,7.75223 -9.15436,8.52196 -0.82577,0.38794 -0.87085,0.7667 -0.86675,7.28236 0.004,5.80264 -0.14431,7.42299 -0.94993,10.40353 -2.24093,8.2908 -4.51806,12.27669 -10.25949,17.9583 -13.39182,13.25227 -42.43281,33.1806 -62.15793,42.65363 -3.40533,1.63542 -6.20262,3.12925 -6.21619,3.31963 -0.0403,0.56441 6.74393,3.5677 10.20252,4.51656 6.39533,1.75453 13.31878,1.94654 22.05634,0.6117 z m 32.12619,-95.23651 c 0.94311,-0.5278 -2.87446,-4.51048 -5.60319,-5.84552 -1.97526,-0.96641 -2.7061,-1.10866 -4.65991,-0.90701 -2.64274,0.27276 -4.55569,1.43129 -5.55539,3.36449 -0.55548,1.07419 -0.57264,1.36302 -0.0998,1.67987 2.68541,1.79943 6.34251,2.52301 11.35747,2.24714 2.19445,-0.12072 4.24681,-0.36326 4.5608,-0.53897 z m 443.83756,106.01008 c 0.15441,-0.99293 0.36081,-2.09206 0.45868,-2.44251 0.11359,-0.40672 5.36447,-2.4672 14.51783,-5.6969 7.88692,-2.78285 19.86968,-7.03367 26.62833,-9.44627 6.75869,-2.4126 12.35049,-4.32453 12.42632,-4.24873 0.20551,0.2055 -0.35007,3.93595 -0.65939,4.42767 -0.14715,0.23387 -3.03924,1.42201 -6.42689,2.6403 -10.41812,3.74664 -46.81099,16.57177 -47.0244,16.57177 -0.1107,0 -0.0749,-0.8124 0.0795,-1.80533 z m -180.96669,-1.30667 c -3.31695,-1.28268 -4.71079,-3.69328 -4.27575,-7.39476 0.50787,-4.32119 2.23184,-7.45166 7.11455,-12.91897 3.35233,-3.75369 3.34873,-3.76042 -2.0076,-3.76042 -3.4965,0 -3.6111,0.0329 -5.23936,1.50393 -0.91556,0.82716 -1.76441,1.34253 -1.88632,1.14528 -0.3153,-0.51017 0.51261,-3.96722 1.20419,-5.02822 1.42029,-2.17896 5.84889,-2.85293 12.07958,-1.83833 4.09209,0.66635 3.89016,0.47377 3.09712,2.95366 -0.55831,1.7459 -1.59138,3.13736 -5.14032,6.92356 -6.90449,7.36608 -8.07439,9.80553 -5.74001,11.96896 1.55843,1.44431 4.23764,1.73999 8.37691,0.92452 4.24475,-0.83627 7.70854,-2.51391 12.02722,-5.82522 1.83439,-1.40652 3.40286,-2.3546 3.48544,-2.10684 0.38426,1.1528 -7.30954,9.35485 -10.68361,11.38937 -3.96864,2.39302 -9.27753,3.27562 -12.41204,2.06348 z m 237.25757,0.0784 c 0,-0.67078 1.2063,-1.45325 10.40643,-6.75499 3.7381,-2.15415 8.80364,-5.16777 11.25677,-6.69694 16.65096,-10.37947 32.45249,-25.7349 37.43146,-36.37472 1.18375,-2.52953 1.27079,-3.05288 1.25273,-7.53122 -0.0208,-5.15253 -1.60925,-23.11971 -5.32627,-60.24705 -1.27478,-12.73289 -3.76329,-38.34734 -5.53005,-56.921 -4.00465,-42.10017 -3.71027,-39.57573 -5.11962,-43.9066 l -1.1834,-3.63648 2.75315,-6.63266 c 1.51422,-3.64796 2.93139,-6.63898 3.14926,-6.64672 0.82353,-0.0292 9.08514,23.12478 10.76176,30.161 1.35149,5.67157 0.72281,6.07333 -2.75939,1.76348 -1.32698,-1.6424 -2.47827,-2.92062 -2.55839,-2.8405 -0.21265,0.21266 3.30346,36.10437 8.12374,82.9249 3.3693,32.727 3.70042,37.19231 3.74876,50.54925 0.034,9.43491 -0.10717,12.77217 -0.68335,16.14178 -1.35277,7.91093 -3.4153,14.46428 -6.49227,20.62786 -3.21048,6.43109 -10.2748,15.44003 -15.47971,19.74092 -4.84045,3.99968 -16.71978,8.98306 -32.708,13.72099 -11.07453,3.28181 -11.04454,3.27486 -11.04361,2.5587 z M 583.224,356.10189 c -1.55547,-0.79336 -3.36964,-3.22368 -3.97067,-5.3193 -0.58943,-2.05526 -0.50481,-7.02526 0.16214,-9.52346 0.31188,-1.16816 1.82063,-5.46909 3.35278,-9.55763 1.53211,-4.08854 2.91465,-8.05496 3.07233,-8.81426 0.15764,-0.7593 0.47631,-1.38055 0.7082,-1.38055 0.7257,0 -0.0764,4.57199 -1.82585,10.4072 -2.96431,9.88763 -3.07411,13.72159 -0.4713,16.45508 2.93203,3.07918 6.77216,1.19213 8.20139,-4.03016 0.23979,-0.87612 0.62838,-1.59294 0.86362,-1.59294 0.25963,0 0.32016,0.62587 0.15407,1.59294 -0.9784,5.69708 -2.69746,9.82563 -4.70579,11.30164 -1.49065,1.09558 -3.90359,1.29652 -5.54092,0.46144 z M 163.83456,326.30775 c -0.8529,-0.44212 -2.01954,-1.64895 -2.76109,-2.85619 -1.08975,-1.77412 -1.3076,-2.60669 -1.43913,-5.50001 -0.19759,-4.34677 0.33365,-6.65056 3.34567,-14.50882 1.34548,-3.51033 2.78021,-7.57232 3.18827,-9.02666 0.68783,-2.45141 1.47955,-3.51582 1.47955,-1.98915 0,1.30152 -1.33938,7.09781 -2.54571,11.01674 -2.55308,8.2941 -2.64695,12.28476 -0.35047,14.9003 3.01715,3.43635 6.95328,1.69213 8.43994,-3.74 0.23978,-0.87612 0.6284,-1.59294 0.86362,-1.59294 0.85913,0 -0.91129,7.42704 -2.43018,10.19481 -1.87957,3.42501 -4.87012,4.61575 -7.79047,3.10192 z m 84.34115,-14.67728 c -0.10846,-0.52567 -0.31558,-3.44074 -0.46027,-6.47795 -0.14469,-3.0372 -1.19929,-18.23384 -2.34357,-33.7703 -1.14428,-15.53646 -2.31246,-31.64106 -2.59595,-35.78801 l -0.51545,-7.53991 h -3.28578 c -11.24256,0 -19.07272,-8.18821 -21.23773,-22.20885 -0.74463,-4.82223 -0.26174,-14.87113 1.07608,-22.39343 2.10411,-11.83101 2.49791,-14.44386 2.21893,-14.72283 -0.86447,-0.86448 -3.92426,4.18878 -5.72718,9.45847 -1.37079,4.00661 -3.24941,11.78201 -5.35462,22.16211 -2.19428,10.81927 -3.21969,14.54571 -4.9935,18.1469 -2.2406,4.54888 -5.27074,6.87643 -9.52355,7.31536 -4.61349,0.47616 -9.24236,-3.18073 -12.5149,-9.887 -4.67884,-9.58814 -5.49603,-23.64779 -2.29924,-39.55823 1.17761,-5.86102 2.25772,-9.10624 3.12728,-9.3961 0.67153,-0.22384 0.61717,0.80045 -0.60423,11.38391 -0.8883,7.69722 -0.68388,20.50456 0.38868,24.35201 1.68401,6.04076 4.87243,10.40861 8.25914,11.31423 2.37024,0.63381 4.0209,0.25092 5.85301,-1.3577 3.30986,-2.9061 4.59269,-6.41467 8.47715,-23.18531 3.76003,-16.23337 5.18241,-20.81265 8.66678,-27.90218 3.11065,-6.32914 6.39454,-10.6303 8.91238,-11.67322 1.69893,-0.70372 3.1368,0.18772 3.86584,2.39673 0.82394,2.49655 0.21244,10.51895 -1.72701,22.65718 -2.14005,13.39369 -2.52113,19.63061 -1.50605,24.64874 1.63219,8.06884 5.49262,11.92689 13.15982,13.15173 1.61646,0.25823 3.08883,0.30519 3.28911,0.10491 0.20029,-0.20029 -0.39804,-10.6196 -1.3366,-23.27564 -2.80336,-37.8021 -2.83842,-38.14611 -4.27552,-41.95838 -0.69008,-1.83061 -1.24546,-3.64656 -1.23417,-4.03545 0.0335,-1.15369 5.25346,-13.32538 5.71489,-13.32569 1.02451,-8.5e-4 10.77053,28.43191 11.15188,32.53403 0.30243,3.25311 -0.1553,3.10628 -3.6128,-1.15892 l -2.6549,-3.27511 0.0184,1.60454 c 0.043,3.74317 3.64071,51.49429 3.89927,51.75285 0.15608,0.15608 1.89926,-0.49816 3.87375,-1.45387 4.63242,-2.24222 7.64669,-5.4417 10.2584,-10.88869 2.61069,-5.44486 2.98266,-7.37819 2.94224,-15.29221 -0.0543,-10.62251 -1.66958,-20.04492 -5.35978,-31.26436 l -1.76051,-5.35256 2.47725,-6.87273 c 1.39587,-3.87257 2.67941,-6.80719 2.94033,-6.7226 0.6951,0.22534 5.53339,14.94001 7.22198,21.96414 0.81439,3.38765 1.88027,8.8355 2.36863,12.10634 2.85694,19.13466 4.1078,25.0077 6.33302,29.73485 3.1231,6.63455 9.46897,10.83198 16.3763,10.83198 5.01627,0 10.63056,-2.21548 12.37989,-4.88529 0.98798,-1.50786 0.4507,-3.35849 -3.94632,-13.5928 -6.08424,-14.1614 -8.66388,-22.3494 -10.17098,-32.28355 -0.50871,-3.35322 -1.1631,-5.71175 -2.31749,-8.35267 l -1.6086,-3.68005 2.41024,-7.25813 c 1.32564,-3.99197 2.61143,-7.25813 2.85733,-7.25813 0.24589,0 0.80699,0.62125 1.24689,1.38055 0.43989,0.7593 2.96012,4.86365 5.6005,9.12078 6.68144,10.77259 7.88361,13.28656 6.35358,13.28656 -0.32867,0 -1.85789,-0.56547 -3.39827,-1.25659 -1.54038,-0.69112 -2.80069,-1.06944 -2.80069,-0.84071 0,0.22874 2.18082,7.05445 4.84626,15.16825 2.66544,8.1138 5.36146,17.0462 5.99114,19.84978 1.0223,4.55159 1.12171,5.68868 0.92845,10.61959 -0.28644,7.30805 -1.60079,11.62386 -5.25176,17.24477 -3.16685,4.87557 -7.68356,7.51835 -13.52302,7.91248 -6.10124,0.41179 -11.91684,-1.83482 -16.33461,-6.3102 -4.32357,-4.37995 -6.62402,-8.71996 -8.67214,-16.36084 l -1.00802,-3.76057 -0.50963,1.91153 c -1.59728,5.99107 -2.91828,9.44179 -5.52894,14.44264 -2.485,4.76012 -7.04837,9.41153 -11.27459,11.49207 -1.63542,0.80511 -3.0208,1.47929 -3.07863,1.49819 -0.0578,0.0189 0.0838,2.50387 0.31466,5.52218 3.71873,48.61251 3.90124,51.48488 3.709,58.3734 -0.22592,8.09507 -1.42142,14.69486 -3.78962,20.92059 -0.53869,1.41615 -1.1054,1.50389 -1.37186,0.21239 z m 120.83578,-9.73529 c -1.85511,-7.4206 -3.47609,-11.85905 -5.67167,-15.52982 -1.45427,-2.43137 -1.6295,-2.54946 -2.40188,-1.61879 -1.21697,1.46635 -7.23489,-2.24569 -7.23489,-4.4627 0,-0.47024 0.58284,-2.00958 1.29519,-3.42075 1.25978,-2.49561 1.33237,-2.55773 2.6549,-2.27235 3.4238,0.7388 5.98181,2.88733 8.56655,7.1952 1.47374,2.45622 3.65445,8.47993 4.27584,11.81101 0.16546,0.887 0.36682,1.54677 0.44746,1.46613 0.0806,-0.0806 0.63079,-3.38949 1.22257,-7.35301 1.71525,-11.4882 3.19481,-15.79821 5.72621,-16.68066 1.61699,-0.56369 3.29923,0.35207 5.2759,2.87202 l 1.4763,1.88207 -0.66692,1.72859 c -0.3668,0.95073 -0.80784,1.88872 -0.98009,2.08442 -0.17225,0.1957 -1.12795,-0.23439 -2.12377,-0.95576 -4.28938,-3.10721 -5.49434,-1.18778 -7.17662,11.43192 -1.13472,8.5122 -2.0798,12.25599 -3.29504,13.05276 -0.89357,0.58587 -0.94807,0.53763 -1.39004,-1.23028 z M 555.47526,291.6166 c 0,-0.65808 0.25093,-0.96677 9.57904,-11.78397 6.38323,-7.40218 7.96215,-9.45936 10.12421,-13.19082 l 1.14688,-1.97931 -3.60463,-2.34962 c -2.1684,-1.41342 -3.86804,-2.85897 -4.26572,-3.62797 -1.88604,-3.64724 0.66886,-11.27735 4.70142,-14.0405 1.87172,-1.28251 4.89418,-1.63342 6.2752,-0.72855 2.35674,1.5442 3.60484,9.04625 2.34039,14.06778 -0.45703,1.81505 -0.43927,1.86822 1.09207,3.27163 l 1.55671,1.42659 -1.04969,2.89181 c -0.57732,1.5905 -1.16509,3.00724 -1.30616,3.14831 -0.14107,0.14107 -0.68582,-0.12999 -1.21055,-0.60236 -1.76154,-1.58568 -1.93544,-1.5409 -3.12386,0.80438 -3.15941,6.23489 -9.54841,13.70824 -16.51529,19.31834 -4.10149,3.30273 -5.74002,4.26594 -5.74002,3.37426 z m 22.42824,-36.54941 c -0.1048,-1.26345 -0.53005,-2.81536 -0.94502,-3.44869 -0.67638,-1.03234 -0.94782,-1.12971 -2.62295,-0.9409 -3.92466,0.44237 -3.80492,2.03097 0.36901,4.89533 1.43577,0.98529 2.78573,1.79144 2.99995,1.79144 0.21422,0 0.3038,-1.03374 0.19901,-2.29718 z m -413.87962,21.94342 c 0.16257,-1.10975 0.44608,-2.17441 0.63005,-2.3659 0.40765,-0.42436 47.67455,-17.34357 47.87959,-17.13853 0.14521,0.14521 -0.62185,4.60867 -0.81739,4.75633 -0.14252,0.10762 -16.45896,5.96745 -33.01656,11.85745 -7.58895,2.6996 -14.06205,4.90837 -14.38467,4.90837 -0.45808,0 -0.52183,-0.44203 -0.29102,-2.01772 z m -13.98215,-4.31775 c -0.26641,-0.43107 0.75858,-1.09512 6.29296,-4.07695 4.48848,-2.41831 18.18973,-11.52384 23.05052,-15.31881 1.89975,-1.4832 4.53919,-3.8958 5.86542,-5.36132 2.06663,-2.28371 2.30153,-2.70511 1.6433,-2.94807 -0.42241,-0.15591 -1.68006,-0.60633 -2.79478,-1.00093 -3.56175,-1.26081 -4.18434,-4.74729 -1.77599,-9.94546 0.57292,-1.23658 1.04166,-2.30263 1.04166,-2.369 0,-0.0664 -0.3823,-0.22064 -0.84956,-0.34284 -1.00774,-0.26352 -1.06971,-1.07646 -0.23447,-3.07548 0.86107,-2.06084 2.20903,-2.58759 5.01242,-1.95878 6.44541,1.44576 11.77842,6.03937 13.09868,11.28261 0.67751,2.69061 0.16686,6.33525 -1.09288,7.80026 -0.86908,1.01068 -1.30107,1.15429 -3.47217,1.15429 -1.36378,0 -3.27796,-0.14337 -4.25374,-0.31862 l -1.77413,-0.31862 -1.3875,2.44254 c -4.24923,7.48035 -21.18249,19.36287 -33.45025,23.47295 -4.13489,1.38531 -4.5613,1.46178 -4.91949,0.88223 z m 49.04009,-31.44577 c 0,-1.20559 -5.9827,-7.82899 -6.51921,-7.21738 -0.0888,0.10118 -0.26817,1.66377 -0.39871,3.47244 l -0.23735,3.28848 1.34752,0.39006 c 1.80407,0.52222 5.80775,0.56799 5.80775,0.0664 z m -9.28118,-1.61744 c 0.25435,-2.95168 -0.85139,-5.62838 -2.32507,-5.62838 -1.25636,0 -4.24373,3.0266 -4.04147,4.09454 0.10971,0.57929 0.88647,0.97795 2.90751,1.49223 3.56033,0.90597 3.38472,0.90386 3.45903,0.0416 z m 276.82448,20.50999 c -3.19124,-2.1685 -4.25081,-5.64195 -4.17099,-13.67322 0.0275,-2.76729 0.0332,-5.60279 0.0126,-6.3011 -0.037,-1.25732 1.83216,-4.45024 2.79002,-4.76591 0.26004,-0.0857 0.71309,0.42428 1.00677,1.1333 0.4424,1.06804 0.4033,2.12229 -0.22801,6.14772 -0.93038,5.93248 -0.52885,8.69561 1.55355,10.69068 1.08621,1.04066 1.63352,1.23216 3.52139,1.23216 1.80593,0 2.54185,-0.23383 3.83132,-1.21736 2.68757,-2.04991 3.30863,-3.43127 2.98583,-6.64113 -0.15272,-1.51861 -0.6981,-4.21306 -1.21196,-5.98768 -0.90899,-3.13915 -0.914,-3.2744 -0.18487,-4.99121 0.41219,-0.97054 0.91775,-1.76462 1.12346,-1.76462 0.68286,0 1.36035,2.13335 1.99879,6.29396 1.45063,9.4535 2.58148,11.49129 6.59072,11.87653 2.39808,0.23043 4.06913,-0.39765 4.47699,-1.6827 0.15265,-0.48097 -0.52867,-2.46123 -1.73387,-5.03946 -2.38689,-5.10619 -2.63104,-6.61682 -1.60467,-9.92866 0.962,-3.10416 1.64562,-3.44201 2.04449,-1.01042 0.16484,1.00488 1.13905,3.96072 2.16492,6.56854 1.38429,3.51892 1.86415,5.32613 1.86107,7.00893 -0.007,3.65503 -2.68495,8.44851 -5.54754,9.92881 -2.77207,1.43349 -6.29014,0.31334 -8.27738,-2.63552 l -0.89339,-1.32571 -1.38604,2.31731 c -1.94408,3.25031 -4.22074,4.81454 -7.00731,4.81454 -1.61112,0 -2.57319,-0.27128 -3.71591,-1.04778 z m 158.70003,-18.59076 c 0.16214,-1.22233 0.34488,-2.27251 0.40614,-2.33373 0.0612,-0.0612 9.65414,-3.53353 21.31768,-7.71623 11.66349,-4.1827 21.75852,-7.82111 22.43341,-8.08535 0.6749,-0.26425 1.31046,-0.39704 1.41241,-0.2951 0.24247,0.24248 -0.29633,3.81927 -0.65943,4.37763 -0.1545,0.23755 -1.42783,0.86195 -2.82962,1.38756 -6.84814,2.56772 -41.55067,14.88763 -41.93523,14.88763 -0.2852,0 -0.33638,-0.78253 -0.14536,-2.22241 z m 188.35313,-5.95467 c -0.0361,-0.29204 -0.0959,-4.16288 -0.13308,-8.60187 -0.0627,-7.48231 -0.15271,-8.34969 -1.23353,-11.89394 -2.07838,-6.8155 -4.91623,-11.22505 -11.68431,-18.15564 l -4.4556,-4.56256 0.91087,-5.15545 c 0.50099,-2.8355 1.03222,-5.27444 1.18055,-5.41986 0.46782,-0.45859 7.84937,7.5908 10.04677,10.95571 4.01986,6.15565 6.59184,12.65303 7.83344,19.78909 0.9194,5.28411 0.60927,14.31458 -0.67468,19.64625 -0.84023,3.48901 -1.60127,4.93352 -1.79043,3.39827 z m -261.93923,-0.63718 c 0.0867,-0.17522 1.09567,-2.20568 2.24216,-4.51214 1.58545,-3.18953 2.1275,-4.78763 2.26401,-6.67486 0.25026,-3.45972 -0.11642,-4.58102 -1.71828,-5.25455 -2.02162,-0.85003 -3.52231,-0.0369 -5.06055,2.74183 l -0.82325,1.48719 0.26214,-1.69913 c 0.34368,-2.22776 1.83531,-5.19932 3.11526,-6.20613 1.35666,-1.06715 3.47821,-1.02742 4.675,0.0876 2.69819,2.51374 2.44562,7.80417 -0.67743,14.18946 -1.30895,2.67624 -3.61677,6.15745 -4.08271,6.15854 -0.19469,4.2e-4 -0.28305,-0.14255 -0.19635,-0.31777 z m -94.3888,-10.64813 c -6.65589,-2.20858 -11.73373,-8.07991 -13.97133,-16.15455 -2.37907,-8.58518 -2.11947,-16.95905 1.04739,-33.78574 1.06493,-5.65835 1.29955,-8.7575 0.66299,-8.7575 -0.58424,0 -2.45483,2.93457 -3.88485,6.09451 -1.84336,4.07334 -3.8526,11.69496 -6.58749,24.98824 -2.53692,12.33096 -4.39577,18.31498 -6.675,21.48806 -1.99101,2.77183 -4.69262,4.36444 -7.89642,4.65495 -3.32982,0.30193 -5.60411,-0.76619 -8.65878,-4.06659 -3.83652,-4.14517 -6.10082,-9.33995 -7.40432,-16.98708 -0.95681,-5.61322 -0.61578,-19.57601 0.64062,-26.22886 0.95765,-5.07092 2.41618,-10.24232 3.13892,-11.12939 1.06866,-1.31166 1.13359,0.58612 0.25243,7.37785 -1.24978,9.63297 -1.35686,22.28311 -0.22804,26.94143 3.08737,12.74083 11.74301,16.81456 16.86622,7.938 1.79947,-3.11778 2.9029,-6.87201 6.14105,-20.8939 3.4359,-14.87821 5.46457,-21.31503 8.77121,-27.8304 5.99341,-11.80938 11.69088,-14.79069 12.89688,-6.74855 0.38153,2.54425 -0.32091,9.46341 -2.1305,20.98587 -0.80721,5.13988 -1.66241,11.11082 -1.90044,13.26876 -0.70188,6.36311 0.18462,12.85908 2.3336,17.0999 3.46753,6.84282 12.6705,9.31437 22.78512,6.11917 7.83299,-2.47444 13.2998,-8.69689 15.69507,-17.86449 2.2603,-8.65101 0.27156,-26.61062 -4.5082,-40.71209 l -1.87178,-5.52218 2.4743,-6.7763 c 1.36087,-3.72696 2.67735,-6.84397 2.92553,-6.9267 0.56453,-0.18817 5.55304,14.83265 7.29333,21.96079 0.70956,2.90636 1.78331,8.54536 2.38609,12.53111 3.64996,24.1345 5.1533,29.45049 9.7854,34.60251 2.42703,2.69944 7.05826,5.09339 10.67945,5.52036 6.7693,0.79816 14.97782,-2.80216 14.97782,-6.56939 0,-1.75099 -0.55388,-3.27312 -4.25186,-11.68472 -6.07665,-13.82227 -8.95505,-23.12995 -10.59179,-34.24993 -0.24783,-1.68379 -1.11918,-4.58204 -1.93633,-6.44057 -0.81714,-1.85853 -1.48572,-3.62111 -1.48572,-3.91684 0,-0.93406 4.77332,-14.40449 5.10431,-14.40449 0.37202,0 11.26985,17.50076 12.89546,20.70876 0.61352,1.21072 1.11549,2.39882 1.11549,2.64022 0,0.72045 -1.34684,0.49572 -3.75903,-0.62721 -2.657,-1.2369 -3.0375,-1.28657 -3.0375,-0.39656 0,0.36369 2.01512,6.71652 4.47806,14.11742 8.09088,24.3124 8.8305,29.47573 5.70958,39.85927 -1.43011,4.75807 -3.41563,8.27008 -6.3559,11.24237 -3.21662,3.25164 -6.14066,4.60161 -10.72773,4.95276 -9.21292,0.70528 -17.65042,-4.64909 -22.19839,-14.08691 -1.71273,-3.55419 -2.24883,-5.09246 -3.64012,-10.44474 l -0.49689,-1.91153 -0.82247,3.15052 c -1.91515,7.33612 -5.88938,15.55399 -9.37291,19.38123 -2.58122,2.83588 -6.55224,5.41291 -10.54745,6.84484 -4.251,1.5236 -12.47962,1.85464 -16.11508,0.64831 z m -117.82452,-5.51421 c -0.17683,-0.2861 0.44839,-4.39385 0.69093,-4.53953 0.0581,-0.0349 8.13412,-2.99273 17.94662,-6.57289 9.8125,-3.58017 18.10614,-6.6085 18.4303,-6.72963 0.47638,-0.17799 0.53091,0.16971 0.28442,1.81348 -0.16774,1.11853 -0.39409,2.26592 -0.503,2.54974 -0.16624,0.4332 -10.36676,4.28996 -32.53153,12.29997 -2.26876,0.81989 -4.21174,1.35038 -4.31774,1.17886 z m 293.47254,-0.55453 c -4.07363,-2.36171 -5.29348,-6.06328 -4.95493,-15.0357 0.0529,-1.40179 -0.0208,-3.40889 -0.16388,-4.46023 -0.22764,-1.67334 -0.092,-2.16295 1.08889,-3.92925 1.48925,-2.2277 1.87776,-2.41149 2.52823,-1.19608 0.60336,1.1274 0.55285,2.77024 -0.22344,7.26881 -1.06298,6.15952 0.12,9.9343 3.45859,11.03614 2.18755,0.72195 4.06641,0.19981 6.27427,-1.74362 1.39966,-1.23201 2.02753,-2.15196 2.23988,-3.28186 0.32585,-1.7339 -0.33843,-6.30585 -1.41377,-9.73003 -0.65582,-2.08845 -0.65106,-2.31039 0.0844,-3.94133 0.42865,-0.95054 0.98681,-1.66041 1.24037,-1.57748 0.70463,0.23046 1.47382,2.94483 2.17773,7.68511 0.86427,5.82004 1.66847,8.11164 3.23923,9.23012 2.68612,1.9127 7.57517,1.24171 7.57517,-1.03965 0,-0.53203 -0.77833,-2.57685 -1.72968,-4.54404 -2.36426,-4.88902 -2.65243,-6.68614 -1.61214,-10.05418 0.87523,-2.8337 1.48369,-3.36618 1.84696,-1.61638 0.12128,0.58408 0.33091,1.58445 0.46586,2.22305 0.13496,0.6386 0.98903,2.90831 1.89794,5.04382 0.90891,2.1355 1.77487,4.64734 1.92427,5.58186 0.79655,4.9812 -4.05448,12.00112 -8.29318,12.00112 -1.87147,0 -4.69246,-1.71091 -5.73726,-3.4796 l -0.73279,-1.24051 -1.34253,2.21903 c -1.96042,3.2404 -4.00758,4.73164 -6.75431,4.92011 -1.22886,0.0843 -2.61659,-0.0683 -3.08385,-0.33923 z m -340.52934,-23.25952 -0.16168,-5.8875 -1.80462,-3.64187 c -1.28475,-2.59274 -2.71734,-4.6121 -4.973,-7.00988 l -3.16839,-3.36801 0.46338,-2.71342 c 0.25486,-1.49237 0.60514,-2.86789 0.77839,-3.05669 0.43202,-0.47081 5.00267,4.61126 6.73116,7.48433 2.83557,4.71325 4.6938,12.40148 4.11559,17.0278 -0.47445,3.79611 -1.16607,7.05275 -1.49783,7.05275 -0.17672,0 -0.39407,-2.64938 -0.483,-5.88751 z m 166.47322,-6.01162 c -3.37991,-1.83575 -4.66824,-5.49937 -4.5542,-12.95072 0.0393,-2.56994 -0.0578,-5.43723 -0.2158,-6.37175 -0.24764,-1.46455 -0.10121,-1.9777 1.06064,-3.71686 2.31394,-3.46369 3.36402,-2.22013 2.72944,3.23235 -0.19416,1.66827 -0.36349,4.69226 -0.3763,6.71998 -0.0267,4.22131 0.59203,5.51678 3.27128,6.84971 1.29686,0.64518 1.8172,0.69197 3.28874,0.29573 2.18093,-0.58726 4.98954,-3.07274 5.44101,-4.81502 0.42551,-1.64211 -0.0794,-5.5651 -1.19328,-9.27196 -0.8468,-2.81794 -0.84686,-2.83827 -0.015,-4.77881 0.45945,-1.07186 0.94749,-1.94883 1.08453,-1.94883 0.60288,0 1.53479,3.32857 2.34141,8.36295 1.30794,8.16322 2.65161,10.11513 6.96312,10.11513 4.23626,0 4.60318,-1.58348 1.73327,-7.48005 -2.14222,-4.40143 -2.38524,-6.45768 -1.14506,-9.68859 0.97166,-2.53137 1.60406,-2.61641 1.92716,-0.25914 0.14555,1.06191 1.07265,3.79279 2.06023,6.06861 1.54291,3.55557 1.79613,4.55629 1.79947,7.11134 0.003,2.39264 -0.21524,3.39364 -1.11781,5.12436 -2.06766,3.96481 -5.732,6.33322 -8.47827,5.47985 -1.52331,-0.47336 -3.33312,-1.88238 -4.15619,-3.23581 l -0.7431,-1.22194 -1.53088,2.30567 c -2.98543,4.49638 -6.67581,5.974 -10.17436,4.0738 z m -95.89386,-2.08034 c 0,-0.21251 1.48143,-1.19509 3.29207,-2.18351 4.89937,-2.67454 19.32529,-12.33967 27.25958,-18.26348 3.83689,-2.86465 9.25818,-7.42444 12.04731,-10.13287 l 5.07114,-4.92442 -1.19286,-0.85134 c -0.65607,-0.46824 -2.01537,-1.59251 -3.02065,-2.49838 -1.70338,-1.53493 -1.82753,-1.79515 -1.82381,-3.82305 0.007,-3.69411 2.73526,-7.53985 6.83235,-9.63003 3.18241,-1.62355 5.90765,-0.58425 6.75906,2.57762 0.48521,1.80197 -0.14284,5.44182 -1.49327,8.65413 l -0.69524,1.65381 1.49292,1.45008 c 3.02059,2.93388 3.03024,5.23042 0.0584,13.90342 -2.88819,8.42899 -2.97171,12.00765 -0.35287,15.11996 2.12198,2.52183 5.28106,0.88227 6.03061,-3.12988 0.47114,-2.52186 0.88574,-2.99238 0.96343,-1.09335 0.20209,4.93963 -0.7757,8.76478 -2.64184,10.33503 -2.43985,2.053 -5.37515,1.01194 -7.18755,-2.54922 -0.93314,-1.8335 -1.06184,-2.6277 -1.06093,-6.54685 8.5e-4,-4.10529 0.14928,-4.92031 1.86376,-10.24155 2.23304,-6.93065 2.18568,-7.99374 -0.46269,-10.3864 l -1.75976,-1.58983 -1.03019,1.23267 c -3.95832,4.7363 -5.4778,6.29114 -10.08029,10.31486 -9.83643,8.59951 -22.43805,16.49354 -33.92691,21.25282 -4.41525,1.82903 -4.94181,1.97285 -4.94181,1.34976 z m 51.39882,-42.66576 c 0,-4.62118 -2.28069,-6.65912 -4.91576,-4.39253 -0.85941,0.73923 -1.06763,1.2089 -0.84581,1.9078 0.27297,0.86006 4.60585,4.33287 5.40593,4.33287 0.1956,0 0.35564,-0.83166 0.35564,-1.84814 z m 205.89843,33.69903 c -3.04081,-2.1775 -4.71438,-4.88813 -4.71438,-7.63582 0,-2.68959 1.20363,-4.59574 3.94017,-6.2399 3.00042,-1.8027 35.08606,-13.6614 35.59258,-13.15485 0.11596,0.11596 0.0505,1.20506 -0.14541,2.42022 l -0.35626,2.20939 -3.61066,1.25963 c -9.71481,3.38911 -28.38655,10.26659 -29.71833,10.94632 -0.8268,0.42199 -1.86922,1.1719 -2.31652,1.66647 -0.80382,0.88882 -0.80152,0.91167 0.19842,1.97605 0.55638,0.59226 1.83349,1.59381 2.83798,2.22566 1.80775,1.13712 1.82359,1.16832 1.55411,3.06036 -0.44585,3.12998 -0.58429,3.18372 -3.2617,1.26647 z m -265.43266,-14.14959 -0.14787,-5.6618 -1.78307,-3.597 c -1.26636,-2.55463 -2.65803,-4.50917 -4.80238,-6.74473 l -3.01932,-3.14774 0.48673,-2.88567 c 0.26771,-1.58713 0.64003,-2.88568 0.82738,-2.88568 0.74688,0 5.16282,5.27553 6.66616,7.96376 2.38952,4.27286 3.53603,8.70759 3.53603,13.67749 0,4.16076 -0.69054,8.94317 -1.29132,8.94317 -0.17846,0 -0.39101,-2.54781 -0.47234,-5.6618 z m -77.9574,4.18893 c -2.27796,-0.98497 -2.79782,-2.28185 -3.12745,-7.80194 -0.24882,-4.16677 -0.18599,-5.15283 0.39477,-6.19569 1.58892,-2.85322 2.29835,-1.41488 1.62103,3.28658 -0.37148,2.57856 -0.3404,3.46274 0.16872,4.80039 1.02185,2.68484 3.62008,3.02883 6.00827,0.79547 1.37486,-1.28574 1.50996,-2.96554 0.53845,-6.69539 -0.47104,-1.80844 -0.51655,-2.71391 -0.18065,-3.59371 0.41767,-1.094 0.48809,-1.12297 1.00823,-0.41483 0.30756,0.41873 0.78768,2.3239 1.06693,4.23372 0.27925,1.90981 0.78143,4.00165 1.11593,4.64852 0.89323,1.72732 3.88722,2.32384 5.17916,1.0319 0.54824,-0.54824 0.46283,-0.96708 -0.70707,-3.46709 -1.43226,-3.06068 -1.6591,-5.28611 -0.71305,-6.99555 l 0.58748,-1.06154 0.28402,1.27393 c 0.15622,0.70066 0.73479,2.42085 1.28571,3.82263 0.55092,1.40179 1.11763,2.9694 1.25935,3.48358 0.41384,1.50147 -0.57389,4.31975 -2.09608,5.98075 -1.90979,2.08394 -4.03964,2.15847 -5.78729,0.20251 l -1.19288,-1.33507 -0.84445,1.43123 c -1.46964,2.49086 -3.74615,3.48755 -5.86913,2.5696 z m 267.96192,-8.70907 c -2.2695,-2.33856 -3.23559,-5.52748 -2.88455,-9.52142 0.30877,-3.51298 0.99893,-5.84978 4.21731,-14.27933 1.2934,-3.38765 2.48619,-6.8783 2.65065,-7.75699 0.16445,-0.8787 0.49894,-1.7212 0.74331,-1.87223 0.89128,-0.55083 -0.076,5.19202 -1.83649,10.90357 -1.97343,6.40239 -2.61344,11.75856 -1.67558,14.02274 0.82162,1.98358 2.75991,3.39339 4.66542,3.39339 2.24652,0 3.37918,-1.39299 5.35369,-6.58415 0.71105,-1.8694 0.67758,1.209 -0.0458,4.21619 -1.56999,6.52632 -3.74615,9.1645 -7.55955,9.1645 -1.76334,0 -2.17968,-0.1935 -3.62837,-1.68627 z m -74.19664,-0.56281 c -0.16922,-0.41928 -0.18339,-1.86078 -0.0315,-3.20332 0.75385,-6.6631 -1.7609,-13.35275 -7.11027,-18.9145 l -3.14662,-3.27155 0.51726,-2.75254 c 0.28449,-1.51389 0.66268,-2.89356 0.84043,-3.06592 0.48591,-0.4712 4.76083,4.40432 6.61565,7.54511 3.32823,5.63572 4.7233,12.36203 3.87908,18.70288 -0.27536,2.06817 -0.67069,4.20173 -0.87852,4.74124 -0.33979,0.88212 -0.40885,0.90414 -0.68552,0.2186 z m 158.46627,-7.20236 c -0.0957,-0.29204 -0.65659,-2.34693 -1.24649,-4.56642 -1.32579,-4.98838 -2.84813,-8.79894 -4.8142,-12.05031 -1.21862,-2.01525 -1.58096,-2.36103 -1.89194,-1.80533 -1.15966,2.07215 -7.56378,-1.36088 -7.56378,-4.05468 0,-0.44241 0.58577,-1.96481 1.30175,-3.38311 1.29499,-2.56544 1.30952,-2.57726 2.81648,-2.29456 5.24795,0.98453 9.4793,6.95131 12.20892,17.21623 l 0.96014,3.61066 0.50749,-3.61066 c 2.03786,-14.49959 3.77403,-20.18766 6.41797,-21.02682 1.31538,-0.41748 3.68385,0.98404 5.2609,3.11313 1.45102,1.95895 1.45204,1.96357 0.79316,3.672 -0.96834,2.51081 -1.16637,2.58696 -2.93543,1.12874 -0.8979,-0.74011 -2.10607,-1.32969 -2.7249,-1.32969 -2.39272,0 -3.19934,2.21978 -4.63078,12.74351 -1.37273,10.09171 -2.29052,13.16829 -3.92844,13.16829 -0.19633,0 -0.43519,-0.23894 -0.53085,-0.53098 z m -450.31885,12.46616 c -2.17577,-1.47917 -3.59622,-4.57139 -3.78102,-8.23103 -0.1924,-3.80994 0.46684,-6.43116 3.94877,-15.70091 1.49187,-3.97172 2.84466,-7.93814 3.00619,-8.81426 0.16153,-0.87611 0.49081,-1.59294 0.73172,-1.59294 0.80626,0 -0.0305,4.77233 -1.86481,10.636 -1.62036,5.17964 -1.79188,6.15123 -1.82123,10.3164 l -0.0324,4.59821 1.5867,1.45495 c 2.88049,2.64131 5.64697,1.73475 7.55877,-2.47694 0.45005,-0.99148 0.82248,-2.13721 0.82761,-2.54606 0.005,-0.40886 0.22219,-0.74338 0.48234,-0.74338 0.90588,0 -0.6165,7.10421 -2.18466,10.19481 -1.22018,2.40477 -2.68188,3.4969 -4.96483,3.70954 -1.63153,0.15196 -2.31939,-0.006 -3.49314,-0.80439 z" />
</svg>
